<?xml version="1.0" encoding="utf-8"?><svg xmlns="http://www.w3.org/2000/svg" xmlns:xlink="http://www.w3.org/1999/xlink" width="980" height="1944" preserveAspectRatio="xMidYMid" viewBox="0 0 980 1944" style="z-index:1;margin-right:-2px;display:block;background-repeat-y:initial;background-repeat-x:initial;background-color:rgb(241, 242, 243);animation-play-state:paused" ><g transform="translate(490,972) scale(1,1) translate(-490,-972)" style="transform:matrix(1, 0, 0, 1, 0, 0);animation-play-state:paused" ><linearGradient id="lg-0.27619547543193956" x1="0" x2="1" y1="0" y2="0" style="animation-play-state:paused" ><stop stop-color="#fb8d2e" offset="0" style="animation-play-state:paused" ></stop>

  
<stop stop-color="#27283d" offset="1" style="animation-play-state:paused" ></stop></linearGradient>
<path d="M 0 0 L 0 1848.38 Q 98 1747.6 196 1712.71 T 392 1535.89 T 588 1352.81 T 784 1199.35 T 980 855.867 L 980 0 Z" fill="url(#lg-0.27619547543193956)" opacity="0.4" style="opacity:0.4;animation-play-state:paused" ></path>
<path d="M 0 0 L 0 1905.16 Q 98 1550.2 196 1510.06 T 392 1399.24 T 588 1125.04 T 784 1216.25 T 980 713.765 L 980 0 Z" fill="url(#lg-0.27619547543193956)" opacity="0.4" style="opacity:0.4;animation-play-state:paused" ></path>
<path d="M 0 0 L 0 1668.77 Q 98 1521.33 196 1503.11 T 392 1303.47 T 588 1127.1 T 784 949.105 T 980 879.532 L 980 0 Z" fill="url(#lg-0.27619547543193956)" opacity="0.4" style="opacity:0.4;animation-play-state:paused" ></path>
<path d="M 0 0 L 0 1636.26 Q 98 1573.97 196 1539.48 T 392 1338.88 T 588 1317.23 T 784 822.782 T 980 891.731 L 980 0 Z" fill="url(#lg-0.27619547543193956)" opacity="0.4" style="opacity:0.4;animation-play-state:paused" ></path>
<path d="M 0 0 L 0 1708.18 Q 98 1662.52 196 1627.14 T 392 1434 T 588 1181.48 T 784 1095.75 T 980 729.52 L 980 0 Z" fill="url(#lg-0.27619547543193956)" opacity="0.4" style="opacity:0.4;animation-play-state:paused" ></path></g></svg>