<svg xmlns="http://www.w3.org/2000/svg" version="1.1" xmlns:xlink="http://www.w3.org/1999/xlink" xmlns:svgjs="http://svgjs.com/svgjs" width="1440" height="560" preserveAspectRatio="none" viewBox="0 0 1440 560"><g mask="url(&quot;#SvgjsMask1009&quot;)" fill="none"><rect width="1440" height="560" x="0" y="0" fill="rgba(39, 40, 61, 1)"></rect><path d="M685.7 360.11L708.78 360.11L708.78 383.19L685.7 383.19z" fill="rgba(214, 58, 95, 1)"></path><path d="M523.22 215.63L570.23 215.63L570.23 262.64L523.22 262.64z" fill="rgba(85, 162, 182, 1)"></path><path d="M140.45 553.37 a25.68 25.68 0 1 0 51.36 0 a25.68 25.68 0 1 0 -51.36 0z" stroke="rgba(85, 162, 182, 1)"></path><path d="M660.1 78.52L708.69 78.52L708.69 127.11L660.1 127.11z" fill="rgba(214, 58, 95, 1)"></path><path d="M394.15 169.26a42.32 42.32 0 1 0 3.45-84.57z" fill="rgba(85, 162, 182, 1)"></path><path d="M586.29 263.43L590.74 263.43L590.74 269.67L586.29 269.67z" stroke="rgba(214, 58, 95, 1)"></path><path d="M206.8 459.58a7 7 0 1 0 3.73-13.49z" fill="rgba(251, 141, 46, 1)"></path><path d="M902.55 428.04 a15.15 15.15 0 1 0 30.3 0 a15.15 15.15 0 1 0 -30.3 0z" stroke="rgba(251, 141, 46, 1)"></path><path d="M1060.94 231.84L1109.29 231.84L1109.29 280.19L1060.94 280.19z" stroke="rgba(85, 162, 182, 1)"></path><path d="M1152.49 105.47 a51 51 0 1 0 102 0 a51 51 0 1 0 -102 0z" fill="rgba(85, 162, 182, 1)"></path><path d="M208.2 386.41L231.27 386.41L231.27 410.76L208.2 410.76z" stroke="rgba(214, 58, 95, 1)"></path><path d="M409.53 205.62 a52.48 52.48 0 1 0 104.96 0 a52.48 52.48 0 1 0 -104.96 0z" stroke="rgba(251, 141, 46, 1)"></path><path d="M188.05 479.62L198.83 479.62L198.83 501.36L188.05 501.36z" stroke="rgba(251, 141, 46, 1)"></path><path d="M1135.19 32.69L1160.68 32.69L1160.68 83.67L1135.19 83.67z" fill="rgba(85, 162, 182, 1)"></path><path d="M1163.78 160.87a9.92 9.92 0 1 0-11.28-16.31z" fill="rgba(85, 162, 182, 1)"></path><path d="M1314.53 12.26a28.41 28.41 0 1 0-28.08 49.4z" stroke="rgba(85, 162, 182, 1)"></path><path d="M968.52 217.98L984.16 217.98L984.16 233.62L968.52 233.62z" stroke="rgba(85, 162, 182, 1)"></path><path d="M740.62 404.95a27.34 27.34 0 1 0 12.3-53.27z" stroke="rgba(251, 141, 46, 1)"></path><path d="M639.64 482.91L693.65 482.91L693.65 531.53L639.64 531.53z" fill="rgba(214, 58, 95, 1)"></path><path d="M1377.57 316.93L1422.23 316.93L1422.23 361.59L1377.57 361.59z" stroke="rgba(85, 162, 182, 1)"></path><path d="M512.64 352.61L549.37 352.61L549.37 372.68L512.64 372.68z" fill="rgba(214, 58, 95, 1)"></path><path d="M1324.16 516.32 a30.08 30.08 0 1 0 60.16 0 a30.08 30.08 0 1 0 -60.16 0z" stroke="rgba(251, 141, 46, 1)"></path><path d="M554.93 190.21a22.79 22.79 0 1 0-20.95-40.48z" fill="rgba(251, 141, 46, 1)"></path><path d="M169.08 307.36a32.96 32.96 0 1 0-19.45-62.99z" fill="rgba(85, 162, 182, 1)"></path><path d="M241.37 68.32a9.99 9.99 0 1 0 17.64 9.38z" fill="rgba(85, 162, 182, 1)"></path><path d="M1191.77 164.9L1216.46 164.9L1216.46 183.72L1191.77 183.72z" stroke="rgba(251, 141, 46, 1)"></path><path d="M410.54 296.63 a33.53 33.53 0 1 0 67.06 0 a33.53 33.53 0 1 0 -67.06 0z" fill="rgba(214, 58, 95, 1)"></path><path d="M1425.14 333.13 a0.79 0.79 0 1 0 1.58 0 a0.79 0.79 0 1 0 -1.58 0z" fill="rgba(251, 141, 46, 1)"></path><path d="M1136.97 470.41L1189.82 470.41L1189.82 523.26L1136.97 523.26z" fill="rgba(214, 58, 95, 1)"></path><path d="M1275.18 291.03L1292.54 291.03L1292.54 308.39L1275.18 308.39z" fill="rgba(251, 141, 46, 1)"></path><path d="M219.8 269a53.47 53.47 0 1 0-92.73 53.26z" stroke="rgba(251, 141, 46, 1)"></path><path d="M1003.79 70.69L1022.02 70.69L1022.02 88.92L1003.79 88.92z" stroke="rgba(85, 162, 182, 1)"></path><path d="M550.42 266.1 a14 14 0 1 0 28 0 a14 14 0 1 0 -28 0z" fill="rgba(85, 162, 182, 1)"></path></g><defs><mask id="SvgjsMask1009"><rect width="1440" height="560" fill="#ffffff"></rect></mask></defs></svg>