<?xml version="1.0" encoding="UTF-8" standalone="no"?> <svg width="64" height="64" viewBox="0 0 64 64" fill="none" xmlns="http://www.w3.org/2000/svg">
<path d="M32 35C33.6569 35 35 33.6569 35 32C35 30.3431 33.6569 29 32 29C30.3431 29 29 30.3431 29 32C29 33.6569 30.3431 35 32 35Z" fill="black"/>
<path d="M32 47C33.6569 47 35 45.6569 35 44C35 42.3431 33.6569 41 32 41C30.3431 41 29 42.3431 29 44C29 45.6569 30.3431 47 32 47Z" fill="black"/>
<path d="M32 23C33.6569 23 35 21.6569 35 20C35 18.3431 33.6569 17 32 17C30.3431 17 29 18.3431 29 20C29 21.6569 30.3431 23 32 23Z" fill="black"/>
<path d="M32 4C26.4621 4 21.0486 5.64217 16.444 8.71885C11.8395 11.7955 8.25064 16.1685 6.13139 21.2849C4.01213 26.4012 3.45764 32.0311 4.53802 37.4625C5.61841 42.894 8.28515 47.8831 12.201 51.799C16.1169 55.7149 21.106 58.3816 26.5375 59.462C31.969 60.5424 37.5988 59.9879 42.7151 57.8686C47.8315 55.7494 52.2045 52.1605 55.2812 47.556C58.3578 42.9514 60 37.5379 60 32C59.9915 24.5765 57.0388 17.4595 51.7896 12.2104C46.5405 6.96118 39.4235 4.00847 32 4V4ZM29.921 6.082C30.61 6.028 31.31 6 32 6C32.2652 6 32.5196 6.10536 32.7071 6.29289C32.8947 6.48043 33 6.73478 33 7C33 7.26522 32.8947 7.51957 32.7071 7.70711C32.5196 7.89464 32.2652 8 32 8C31.362 8 30.715 8.025 30.079 8.076H29.999C29.7338 8.08634 29.4753 7.99091 29.2805 7.81068C29.0856 7.63046 28.9704 7.38022 28.96 7.115C28.9497 6.84978 29.0451 6.59132 29.2253 6.39647C29.4056 6.20162 29.6558 6.08634 29.921 6.076V6.082ZM26.24 8.7C21.0298 9.9805 16.4002 12.9728 13.093 17.1975C9.78576 21.4222 7.99232 26.6348 8.00001 32C8.00001 32.2652 7.89466 32.5196 7.70712 32.7071C7.51958 32.8946 7.26523 33 7.00001 33C6.7348 33 6.48044 32.8946 6.29291 32.7071C6.10537 32.5196 6.00001 32.2652 6.00001 32C5.99094 26.1873 7.93354 20.5399 11.5165 15.9628C15.0994 11.3856 20.1152 8.14387 25.76 6.757C26.0177 6.69335 26.2901 6.73466 26.5173 6.87184C26.7445 7.00902 26.9079 7.23084 26.9715 7.4885C27.0352 7.74616 26.9939 8.01855 26.8567 8.24575C26.7195 8.47295 26.4977 8.63635 26.24 8.7V8.7ZM32 49C31.0111 49 30.0444 48.7068 29.2222 48.1573C28.3999 47.6079 27.7591 46.827 27.3806 45.9134C27.0022 44.9998 26.9032 43.9945 27.0961 43.0245C27.289 42.0546 27.7652 41.1637 28.4645 40.4645C29.1637 39.7652 30.0547 39.289 31.0246 39.0961C31.9945 38.9031 32.9998 39.0022 33.9134 39.3806C34.8271 39.759 35.608 40.3999 36.1574 41.2221C36.7068 42.0444 37 43.0111 37 44C36.9984 45.3256 36.4711 46.5964 35.5338 47.5338C34.5965 48.4711 33.3256 48.9984 32 49V49ZM32 37C31.0111 37 30.0444 36.7068 29.2222 36.1573C28.3999 35.6079 27.7591 34.827 27.3806 33.9134C27.0022 32.9998 26.9032 31.9945 27.0961 31.0245C27.289 30.0546 27.7652 29.1637 28.4645 28.4645C29.1637 27.7652 30.0547 27.289 31.0246 27.0961C31.9945 26.9031 32.9998 27.0022 33.9134 27.3806C34.8271 27.759 35.608 28.3999 36.1574 29.2221C36.7068 30.0444 37 31.0111 37 32C36.9984 33.3256 36.4711 34.5964 35.5338 35.5338C34.5965 36.4711 33.3256 36.9984 32 37V37ZM32 25C31.0111 25 30.0444 24.7068 29.2222 24.1573C28.3999 23.6079 27.7591 22.827 27.3806 21.9134C27.0022 20.9998 26.9032 19.9945 27.0961 19.0245C27.289 18.0546 27.7652 17.1637 28.4645 16.4645C29.1637 15.7652 30.0547 15.289 31.0246 15.0961C31.9945 14.9031 32.9998 15.0022 33.9134 15.3806C34.8271 15.759 35.608 16.3999 36.1574 17.2221C36.7068 18.0444 37 19.0111 37 20C36.9984 21.3256 36.4711 22.5964 35.5338 23.5338C34.5965 24.4711 33.3256 24.9984 32 25V25Z" fill="black"/>
</svg>
